# xmcd CD database file
#
# Track frame offsets:
#	150
#	16425
#	30675
#	46350
#	60959
#	76409
#	88784
#	99509
#	112934
#	126330
#	143655
#	164580
#	180255
#	194430
#	212880
#
# Disc length: 2871 seconds
#
# Revision: 1
# Processed by: cddbd v1.5.1PL0 Copyright (c) Steve Scherf et al.
# Submitted via: jetAudio 5
#
DISCID=c60b350f
DTITLE=Jimbo Whaley - Jimbo Whaley
DYEAR=1900
DGENRE=
TTITLE0=Timber
TTITLE1=Cell Block Nine
TTITLE2=I Don't Ride Trains Anymore
TTITLE3=Bluegrass Melodies
TTITLE4=Summer of '69
TTITLE5=Why?
TTITLE6=Come Back Sweetheart
TTITLE7=Tree and Three Nails
TTITLE8=When It's Time for the Whippoorwill to Sing
TTITLE9=The Old Radio
TTITLE10=Fly!
TTITLE11=M.R.'s Rolling Store
TTITLE12=Hay's in the Barn
TTITLE13=The Promise
TTITLE14=The Promise (reprise)
EXTD=
EXTT0=
EXTT1=
EXTT2=
EXTT3=
EXTT4=
EXTT5=
EXTT6=
EXTT7=
EXTT8=
EXTT9=
EXTT10=
EXTT11=
EXTT12=
EXTT13=
EXTT14=
PLAYORDER=
